<svg width="32" height="32" viewBox="0 0 512 512" fill="none" xmlns="http://www.w3.org/2000/svg">
  <g transform="translate(66, 0) scale(1.047)">
    <circle cx="311" cy="105" r="46" fill="url(#p0)"/>
    <circle cx="47.8454" cy="389.845" r="46" transform="rotate(-177.653 47.8454 389.845)" fill="url(#p1)"/>
    <circle cx="187.5" cy="38.5" r="38.5" fill="url(#p2)"/>
    <circle cx="159.045" cy="448.045" r="38.5" transform="rotate(-177.653 159.045 448.045)" fill="url(#p3)"/>
    <circle cx="75" cy="79" r="33" fill="url(#p4)"/>
    <circle cx="273.324" cy="423.324" r="33" transform="rotate(-177.653 273.324 423.324)" fill="url(#p5)"/>
    <circle cx="28.5" cy="171.5" r="28.5" fill="url(#p6)"/>
    <circle cx="332.643" cy="336.643" r="28.5" transform="rotate(-177.653 332.643 336.643)" fill="url(#p7)"/>
    <circle cx="49" cy="265" r="26" fill="url(#p8)"/>
    <circle cx="322.651" cy="243.25" r="26" transform="rotate(-177.653 322.651 243.25)" fill="url(#p9)"/>
    <circle cx="100.5" cy="320.5" r="22.5" fill="url(#p10)"/>
    <circle cx="271.467" cy="185.688" r="22.5" transform="rotate(-177.653 271.467 185.688)" fill="url(#p11)"/>
    <circle cx="158.5" cy="343.5" r="16.5" fill="url(#p12)"/>
    <circle cx="214.458" cy="160.331" r="16.5" transform="rotate(-177.653 214.458 160.331)" fill="url(#p13)"/>
    <circle cx="206" cy="345" r="13" fill="url(#p14)"/>
    <circle cx="167.059" cy="156.887" r="13" transform="rotate(-177.653 167.059 156.887)" fill="url(#p15)"/>
    <circle cx="239.5" cy="337.5" r="7.5" fill="url(#p16)"/>
    <circle cx="133.28" cy="163.009" r="7.5" transform="rotate(-177.653 133.28 163.009)" fill="url(#p17)"/>
    <circle cx="264.5" cy="327.5" r="6.5" fill="url(#p18)"/>
    <circle cx="107.892" cy="171.977" r="6.5" transform="rotate(-177.653 107.892 171.977)" fill="url(#p19)"/>
  </g>
  <defs>
    <linearGradient id="p0" x1="311" y1="59" x2="311" y2="151" gradientUnits="userSpaceOnUse"><stop stop-color="#1D4ED8"/><stop offset="1" stop-color="#60A5FA"/></linearGradient>
    <linearGradient id="p1" x1="47.8454" y1="343.845" x2="47.8454" y2="435.845" gradientUnits="userSpaceOnUse"><stop stop-color="#1D4ED8"/><stop offset="1" stop-color="#60A5FA"/></linearGradient>
    <linearGradient id="p2" x1="187.5" y1="0" x2="187.5" y2="77" gradientUnits="userSpaceOnUse"><stop stop-color="#1D4ED8"/><stop offset="1" stop-color="#60A5FA"/></linearGradient>
    <linearGradient id="p3" x1="159.045" y1="409.545" x2="159.045" y2="486.545" gradientUnits="userSpaceOnUse"><stop stop-color="#1D4ED8"/><stop offset="1" stop-color="#60A5FA"/></linearGradient>
    <linearGradient id="p4" x1="75" y1="46" x2="75" y2="112" gradientUnits="userSpaceOnUse"><stop stop-color="#1D4ED8"/><stop offset="1" stop-color="#60A5FA"/></linearGradient>
    <linearGradient id="p5" x1="273.324" y1="390.324" x2="273.324" y2="456.324" gradientUnits="userSpaceOnUse"><stop stop-color="#1D4ED8"/><stop offset="1" stop-color="#60A5FA"/></linearGradient>
    <linearGradient id="p6" x1="28.5" y1="143" x2="28.5" y2="200" gradientUnits="userSpaceOnUse"><stop stop-color="#1D4ED8"/><stop offset="1" stop-color="#60A5FA"/></linearGradient>
    <linearGradient id="p7" x1="332.643" y1="308.143" x2="332.643" y2="365.143" gradientUnits="userSpaceOnUse"><stop stop-color="#1D4ED8"/><stop offset="1" stop-color="#60A5FA"/></linearGradient>
    <linearGradient id="p8" x1="49" y1="239" x2="49" y2="291" gradientUnits="userSpaceOnUse"><stop stop-color="#1D4ED8"/><stop offset="1" stop-color="#60A5FA"/></linearGradient>
    <linearGradient id="p9" x1="322.651" y1="217.25" x2="322.651" y2="269.25" gradientUnits="userSpaceOnUse"><stop stop-color="#1D4ED8"/><stop offset="1" stop-color="#60A5FA"/></linearGradient>
    <linearGradient id="p10" x1="100.5" y1="298" x2="100.5" y2="343" gradientUnits="userSpaceOnUse"><stop stop-color="#1D4ED8"/><stop offset="1" stop-color="#60A5FA"/></linearGradient>
    <linearGradient id="p11" x1="271.468" y1="163.188" x2="271.468" y2="208.188" gradientUnits="userSpaceOnUse"><stop stop-color="#1D4ED8"/><stop offset="1" stop-color="#60A5FA"/></linearGradient>
    <linearGradient id="p12" x1="158.5" y1="327" x2="158.5" y2="360" gradientUnits="userSpaceOnUse"><stop stop-color="#1D4ED8"/><stop offset="1" stop-color="#60A5FA"/></linearGradient>
    <linearGradient id="p13" x1="214.458" y1="143.831" x2="214.458" y2="176.831" gradientUnits="userSpaceOnUse"><stop stop-color="#1D4ED8"/><stop offset="1" stop-color="#60A5FA"/></linearGradient>
    <linearGradient id="p14" x1="206" y1="332" x2="206" y2="358" gradientUnits="userSpaceOnUse"><stop stop-color="#1D4ED8"/><stop offset="1" stop-color="#60A5FA"/></linearGradient>
    <linearGradient id="p15" x1="167.059" y1="143.887" x2="167.059" y2="169.887" gradientUnits="userSpaceOnUse"><stop stop-color="#1D4ED8"/><stop offset="1" stop-color="#60A5FA"/></linearGradient>
    <linearGradient id="p16" x1="239.5" y1="330" x2="239.5" y2="345" gradientUnits="userSpaceOnUse"><stop stop-color="#1D4ED8"/><stop offset="1" stop-color="#60A5FA"/></linearGradient>
    <linearGradient id="p17" x1="133.28" y1="155.509" x2="133.28" y2="170.509" gradientUnits="userSpaceOnUse"><stop stop-color="#1D4ED8"/><stop offset="1" stop-color="#60A5FA"/></linearGradient>
    <linearGradient id="p18" x1="264.5" y1="321" x2="264.5" y2="334" gradientUnits="userSpaceOnUse"><stop stop-color="#1D4ED8"/><stop offset="1" stop-color="#60A5FA"/></linearGradient>
    <linearGradient id="p19" x1="107.892" y1="165.477" x2="107.892" y2="178.477" gradientUnits="userSpaceOnUse"><stop stop-color="#1D4ED8"/><stop offset="1" stop-color="#60A5FA"/></linearGradient>
  </defs>
</svg>
