<svg width="1252" height="380" viewBox="0 0 1252 380" fill="none" xmlns="http://www.w3.org/2000/svg">
<circle cx="242.128" cy="81.7474" r="35.8131" fill="#365EAB"/>
<circle cx="37.2499" cy="303.513" r="35.8131" transform="rotate(-177.653 37.2499 303.513)" fill="#365EAB"/>
<circle cx="145.977" cy="29.974" r="29.974" fill="#365EAB"/>
<circle cx="123.824" cy="348.823" r="29.974" transform="rotate(-177.653 123.824 348.823)" fill="#365EAB"/>
<circle cx="58.391" cy="61.5052" r="25.692" fill="#365EAB"/>
<circle cx="212.795" cy="329.577" r="25.692" transform="rotate(-177.653 212.795 329.577)" fill="#365EAB"/>
<circle cx="22.1886" cy="133.521" r="22.1886" fill="#365EAB"/>
<circle cx="258.978" cy="262.092" r="22.1886" transform="rotate(-177.653 258.978 262.092)" fill="#365EAB"/>
<circle cx="38.1488" cy="206.315" r="20.2422" fill="#365EAB"/>
<circle cx="251.199" cy="189.382" r="20.2422" transform="rotate(-177.653 251.199 189.382)" fill="#365EAB"/>
<circle cx="78.2439" cy="249.524" r="17.5173" fill="#365EAB"/>
<circle cx="211.35" cy="144.566" r="17.5173" transform="rotate(-177.653 211.35 144.566)" fill="#365EAB"/>
<circle cx="123.4" cy="267.431" r="12.846" fill="#365EAB"/>
<circle cx="166.966" cy="124.825" r="12.846" transform="rotate(-177.653 166.966 124.825)" fill="#365EAB"/>
<circle cx="160.381" cy="268.599" r="10.1211" fill="#365EAB"/>
<circle cx="130.063" cy="122.144" r="10.1211" transform="rotate(-177.653 130.063 122.144)" fill="#365EAB"/>
<circle cx="186.462" cy="262.759" r="5.8391" fill="#365EAB"/>
<circle cx="103.765" cy="126.91" r="5.8391" transform="rotate(-177.653 103.765 126.91)" fill="#365EAB"/>
<circle cx="205.926" cy="254.974" r="5.06055" fill="#365EAB"/>
<circle cx="83.9988" cy="133.892" r="5.06055" transform="rotate(-177.653 83.9988 133.892)" fill="#365EAB"/>
<path d="M377.824 255.148C369.405 255.148 361.861 253.781 355.192 251.048C348.523 248.315 343.165 244.269 339.12 238.912C335.184 233.555 333.107 227.104 332.888 219.56H362.736C363.173 223.824 364.649 227.104 367.164 229.4C369.679 231.587 372.959 232.68 377.004 232.68C381.159 232.68 384.439 231.751 386.844 229.892C389.249 227.924 390.452 225.245 390.452 221.856C390.452 219.013 389.468 216.663 387.5 214.804C385.641 212.945 383.291 211.415 380.448 210.212C377.715 209.009 373.779 207.643 368.64 206.112C361.205 203.816 355.137 201.52 350.436 199.224C345.735 196.928 341.689 193.539 338.3 189.056C334.911 184.573 333.216 178.724 333.216 171.508C333.216 160.793 337.097 152.429 344.86 146.416C352.623 140.293 362.736 137.232 375.2 137.232C387.883 137.232 398.105 140.293 405.868 146.416C413.631 152.429 417.785 160.848 418.332 171.672H387.992C387.773 167.955 386.407 165.057 383.892 162.98C381.377 160.793 378.152 159.7 374.216 159.7C370.827 159.7 368.093 160.629 366.016 162.488C363.939 164.237 362.9 166.807 362.9 170.196C362.9 173.913 364.649 176.811 368.148 178.888C371.647 180.965 377.113 183.207 384.548 185.612C391.983 188.127 397.996 190.532 402.588 192.828C407.289 195.124 411.335 198.459 414.724 202.832C418.113 207.205 419.808 212.836 419.808 219.724C419.808 226.284 418.113 232.243 414.724 237.6C411.444 242.957 406.633 247.221 400.292 250.392C393.951 253.563 386.461 255.148 377.824 255.148ZM431.49 208.08C431.49 198.677 433.24 190.423 436.738 183.316C440.346 176.209 445.212 170.743 451.334 166.916C457.457 163.089 464.29 161.176 471.834 161.176C478.285 161.176 483.916 162.488 488.726 165.112C493.646 167.736 497.418 171.18 500.042 175.444V162.488H528.086V254H500.042V241.044C497.309 245.308 493.482 248.752 488.562 251.376C483.752 254 478.121 255.312 471.67 255.312C464.236 255.312 457.457 253.399 451.334 249.572C445.212 245.636 440.346 240.115 436.738 233.008C433.24 225.792 431.49 217.483 431.49 208.08ZM500.042 208.244C500.042 201.247 498.074 195.725 494.138 191.68C490.312 187.635 485.61 185.612 480.034 185.612C474.458 185.612 469.702 187.635 465.766 191.68C461.94 195.616 460.026 201.083 460.026 208.08C460.026 215.077 461.94 220.653 465.766 224.808C469.702 228.853 474.458 230.876 480.034 230.876C485.61 230.876 490.312 228.853 494.138 224.808C498.074 220.763 500.042 215.241 500.042 208.244ZM594.295 185.776H579.207V254H551.163V185.776H540.995V162.488H551.163V159.864C551.163 148.603 554.388 140.075 560.839 134.28C567.29 128.376 576.747 125.424 589.211 125.424C591.288 125.424 592.819 125.479 593.803 125.588V149.368C588.446 149.04 584.674 149.805 582.487 151.664C580.3 153.523 579.207 156.857 579.207 161.668V162.488H594.295V185.776ZM635.517 177.74C638.797 172.711 642.897 168.775 647.817 165.932C652.737 162.98 658.203 161.504 664.217 161.504V191.188H656.509C649.511 191.188 644.263 192.719 640.765 195.78C637.266 198.732 635.517 203.98 635.517 211.524V254H607.473V162.488H635.517V177.74ZM719.277 255.312C710.312 255.312 702.221 253.399 695.005 249.572C687.898 245.745 682.268 240.279 678.113 233.172C674.068 226.065 672.045 217.756 672.045 208.244C672.045 198.841 674.122 190.587 678.277 183.48C682.432 176.264 688.117 170.743 695.333 166.916C702.549 163.089 710.64 161.176 719.605 161.176C728.57 161.176 736.661 163.089 743.877 166.916C751.093 170.743 756.778 176.264 760.933 183.48C765.088 190.587 767.165 198.841 767.165 208.244C767.165 217.647 765.033 225.956 760.769 233.172C756.614 240.279 750.874 245.745 743.549 249.572C736.333 253.399 728.242 255.312 719.277 255.312ZM719.277 231.04C724.634 231.04 729.172 229.072 732.889 225.136C736.716 221.2 738.629 215.569 738.629 208.244C738.629 200.919 736.77 195.288 733.053 191.352C729.445 187.416 724.962 185.448 719.605 185.448C714.138 185.448 709.601 187.416 705.993 191.352C702.385 195.179 700.581 200.809 700.581 208.244C700.581 215.569 702.33 221.2 705.829 225.136C709.437 229.072 713.92 231.04 719.277 231.04ZM776.467 208.244C776.467 198.732 778.38 190.423 782.207 183.316C786.143 176.209 791.555 170.743 798.443 166.916C805.44 163.089 813.422 161.176 822.387 161.176C833.867 161.176 843.434 164.183 851.087 170.196C858.85 176.209 863.934 184.683 866.339 195.616H836.491C833.976 188.619 829.111 185.12 821.895 185.12C816.756 185.12 812.656 187.143 809.595 191.188C806.534 195.124 805.003 200.809 805.003 208.244C805.003 215.679 806.534 221.419 809.595 225.464C812.656 229.4 816.756 231.368 821.895 231.368C829.111 231.368 833.976 227.869 836.491 220.872H866.339C863.934 231.587 858.85 240.005 851.087 246.128C843.324 252.251 833.758 255.312 822.387 255.312C813.422 255.312 805.44 253.399 798.443 249.572C791.555 245.745 786.143 240.279 782.207 233.172C778.38 226.065 776.467 217.756 776.467 208.244ZM937.592 161.504C948.088 161.504 956.507 165.003 962.848 172C969.189 178.888 972.36 188.4 972.36 200.536V254H944.48V204.308C944.48 198.185 942.895 193.429 939.724 190.04C936.553 186.651 932.289 184.956 926.932 184.956C921.575 184.956 917.311 186.651 914.14 190.04C910.969 193.429 909.384 198.185 909.384 204.308V254H881.34V132.64H909.384V174.788C912.227 170.743 916.108 167.517 921.028 165.112C925.948 162.707 931.469 161.504 937.592 161.504ZM986.272 208.08C986.272 198.677 988.021 190.423 991.52 183.316C995.128 176.209 999.993 170.743 1006.12 166.916C1012.24 163.089 1019.07 161.176 1026.62 161.176C1033.07 161.176 1038.7 162.488 1043.51 165.112C1048.43 167.736 1052.2 171.18 1054.82 175.444V162.488H1082.87V254H1054.82V241.044C1052.09 245.308 1048.26 248.752 1043.34 251.376C1038.53 254 1032.9 255.312 1026.45 255.312C1019.02 255.312 1012.24 253.399 1006.12 249.572C999.993 245.636 995.128 240.115 991.52 233.008C988.021 225.792 986.272 217.483 986.272 208.08ZM1054.82 208.244C1054.82 201.247 1052.86 195.725 1048.92 191.68C1045.09 187.635 1040.39 185.612 1034.82 185.612C1029.24 185.612 1024.48 187.635 1020.55 191.68C1016.72 195.616 1014.81 201.083 1014.81 208.08C1014.81 215.077 1016.72 220.653 1020.55 224.808C1024.48 228.853 1029.24 230.876 1034.82 230.876C1040.39 230.876 1045.09 228.853 1048.92 224.808C1052.86 220.763 1054.82 215.241 1054.82 208.244ZM1117.26 152.976C1112.34 152.976 1108.29 151.555 1105.12 148.712C1102.06 145.76 1100.53 142.152 1100.53 137.888C1100.53 133.515 1102.06 129.907 1105.12 127.064C1108.29 124.112 1112.34 122.636 1117.26 122.636C1122.07 122.636 1126.01 124.112 1129.07 127.064C1132.24 129.907 1133.82 133.515 1133.82 137.888C1133.82 142.152 1132.24 145.76 1129.07 148.712C1126.01 151.555 1122.07 152.976 1117.26 152.976ZM1131.2 162.488V254H1103.16V162.488H1131.2ZM1207.28 161.504C1218 161.504 1226.53 165.003 1232.87 172C1239.32 178.888 1242.54 188.4 1242.54 200.536V254H1214.66V204.308C1214.66 198.185 1213.08 193.429 1209.91 190.04C1206.74 186.651 1202.47 184.956 1197.12 184.956C1191.76 184.956 1187.49 186.651 1184.32 190.04C1181.15 193.429 1179.57 198.185 1179.57 204.308V254H1151.52V162.488H1179.57V174.624C1182.41 170.579 1186.24 167.408 1191.05 165.112C1195.86 162.707 1201.27 161.504 1207.28 161.504Z" fill="#365EAB"/>
</svg>
